<svg width="201" height="101" viewBox="0 0 201 101" fill="none" xmlns="http://www.w3.org/2000/svg">
<path d="M83.4545 43.9794C83.4279 44.7734 83.5343 45.5675 83.7472 46.3351C83.9867 46.9968 84.2794 47.632 84.5987 48.2408C84.7051 48.4261 84.7849 48.6378 84.7849 48.8496C84.7583 49.1672 84.572 49.4848 84.2794 49.6436L82.603 50.7553C82.3902 50.8877 82.1507 50.9935 81.9112 50.9935C81.6185 50.9671 81.3259 50.8347 81.113 50.623C80.7671 50.2524 80.4212 49.8289 80.1551 49.379C79.889 48.929 79.6229 48.4261 79.3302 47.8173C77.2548 50.2524 74.6472 51.47 71.5074 51.47C69.2723 51.47 67.4896 50.8347 66.1858 49.5642C64.882 48.2938 64.2168 46.5998 64.2168 44.4823C64.2168 42.2325 65.015 40.4061 66.6381 39.0298C68.2612 37.6534 70.4165 36.9652 73.1571 36.9652C74.0884 36.9652 75.0463 37.0446 75.9776 37.177C76.9621 37.3093 77.9732 37.5211 79.0375 37.7593V35.8271C79.0375 33.8155 78.6118 32.4127 77.787 31.5921C76.9621 30.7716 75.4987 30.3746 73.4498 30.3746C72.4919 30.3746 71.5074 30.4805 70.5761 30.7187C69.5916 30.9569 68.6338 31.2481 67.7025 31.6186C67.4098 31.751 67.0905 31.8568 66.7712 31.9627C66.6381 32.0156 66.4785 32.0421 66.3455 32.0421C65.9729 32.0421 65.7867 31.7774 65.7867 31.2216V29.9246C65.7601 29.607 65.8399 29.2894 65.9729 28.9982C66.1858 28.76 66.4253 28.5747 66.718 28.4424C67.7823 27.913 68.8998 27.516 70.0706 27.2513C71.4276 26.9072 72.8378 26.7484 74.2215 26.7484C77.3878 26.7484 79.7028 27.4631 81.1928 28.8924C82.6829 30.3217 83.4013 32.4921 83.4013 35.4036V43.9794H83.4545ZM72.6516 48.0026C73.5829 48.0026 74.5142 47.8438 75.3922 47.5262C76.3767 47.1821 77.2282 46.5998 77.92 45.8322C78.3457 45.3558 78.665 44.7734 78.8247 44.1382C79.0109 43.3971 79.0908 42.603 79.0908 41.8354V40.7238C78.2925 40.5385 77.4677 40.3797 76.6428 40.2738C75.818 40.1679 74.9665 40.115 74.1416 40.115C72.3589 40.115 71.0551 40.4591 70.177 41.1737C69.299 41.8884 68.8732 42.8942 68.8732 44.2176C68.8732 45.4616 69.1925 46.388 69.8577 47.0233C70.5229 47.6585 71.4276 48.0026 72.6516 48.0026V48.0026ZM94.0179 50.8612C93.672 50.8877 93.2995 50.8083 93.0068 50.5965C92.7408 50.3054 92.5279 49.9613 92.4481 49.5642L86.1951 29.1041C86.0621 28.76 85.9823 28.4159 85.9557 28.0454C85.9291 27.7277 86.1419 27.4366 86.4612 27.3837H89.2285C89.734 27.3837 90.0799 27.4631 90.2662 27.6483C90.4525 27.8336 90.6387 28.1777 90.7984 28.6806L95.2419 46.2027L99.3928 28.6806C99.5258 28.1512 99.6855 27.8071 99.8984 27.6483C100.218 27.4631 100.59 27.3572 100.963 27.3837H103.091C103.597 27.3837 103.943 27.4631 104.156 27.6483C104.422 27.9395 104.608 28.2836 104.661 28.6806L108.865 46.4145L113.469 28.6806C113.548 28.2836 113.735 27.9395 114.001 27.6483C114.32 27.4631 114.666 27.3572 115.038 27.3837H117.513C117.832 27.3307 118.125 27.5689 118.178 27.8866V28.0454C118.178 28.1777 118.152 28.3365 118.125 28.4689C118.072 28.7071 118.019 28.9188 117.939 29.1306L111.526 49.5907C111.366 50.1201 111.18 50.4642 110.967 50.623C110.675 50.8083 110.302 50.9141 109.956 50.8877H107.668C107.162 50.8877 106.816 50.8083 106.604 50.623C106.338 50.3318 106.151 49.9613 106.098 49.5642L101.974 32.4921L97.8761 49.5378C97.8229 49.9348 97.6367 50.3054 97.3706 50.5965C97.0513 50.8083 96.6788 50.8877 96.3063 50.8612H94.0179V50.8612ZM128.209 51.5758C126.826 51.5758 125.442 51.417 124.112 51.0994C122.781 50.7818 121.744 50.4377 121.052 50.0407C120.706 49.8819 120.413 49.6172 120.227 49.2996C120.121 49.0613 120.067 48.8231 120.067 48.5584V47.2085C120.067 46.6527 120.28 46.388 120.679 46.388C120.839 46.388 120.999 46.4145 121.158 46.4674C121.318 46.5204 121.557 46.6262 121.823 46.7321C122.755 47.1556 123.739 47.4468 124.75 47.6585C125.788 47.8703 126.852 47.9761 127.917 47.9761C129.593 47.9761 130.897 47.685 131.802 47.1027C132.68 46.5733 133.212 45.6204 133.185 44.5882C133.212 43.9 132.946 43.2383 132.467 42.7354C131.988 42.2325 131.083 41.7825 129.779 41.359L125.921 40.1679C123.979 39.5592 122.542 38.6592 121.664 37.4681C120.812 36.3565 120.333 35.033 120.333 33.6302C120.307 32.5979 120.546 31.5921 121.052 30.6922C121.531 29.8452 122.169 29.1041 122.968 28.5218C123.792 27.8866 124.724 27.4366 125.735 27.1454C126.826 26.8278 127.943 26.669 129.088 26.6955C129.673 26.6955 130.285 26.7219 130.87 26.8013C131.482 26.8808 132.041 26.9866 132.6 27.0925C133.159 27.1984 133.638 27.3572 134.116 27.516C134.516 27.6483 134.888 27.8071 135.234 27.9924C135.553 28.1512 135.819 28.363 136.032 28.6541C136.219 28.9188 136.298 29.21 136.272 29.5276V30.7716C136.272 31.3275 136.059 31.6186 135.66 31.6186C135.314 31.5657 134.968 31.4598 134.649 31.301C133.052 30.5863 131.296 30.2422 129.54 30.2687C128.023 30.2687 126.826 30.5069 126.001 31.0098C125.176 31.5127 124.75 32.2803 124.75 33.3655C124.724 34.0802 125.016 34.7684 125.549 35.2448C126.081 35.7477 127.065 36.2506 128.476 36.7006L132.254 37.8916C134.17 38.5004 135.553 39.3474 136.378 40.4326C137.203 41.4914 137.629 42.8148 137.602 44.1382C137.629 45.1969 137.389 46.2557 136.91 47.2085C136.431 48.1085 135.766 48.9025 134.968 49.5378C134.09 50.226 133.079 50.7289 132.014 51.02C130.79 51.3906 129.513 51.5758 128.209 51.5758V51.5758Z" fill="#F2F2F2"/>
<path d="M133.24 64.4396C124.486 70.8714 111.767 74.2859 100.831 74.2859C85.5046 74.2859 71.695 68.6481 61.2646 59.2782C60.4397 58.5371 61.1848 57.5313 62.1693 58.1136C73.4511 64.6249 87.3672 68.5687 101.762 68.5687C112.139 68.5157 122.41 66.4247 131.963 62.428C133.426 61.7663 134.677 63.3808 133.24 64.4396Z" fill="#F2F2F2"/>
<path d="M136.882 60.3106C135.765 58.8813 129.485 59.6224 126.638 59.9665C125.787 60.0724 125.653 59.3313 126.425 58.7754C131.427 55.2816 139.649 56.2874 140.607 57.452C141.565 58.6166 140.341 66.8218 135.658 70.7392C134.94 71.348 134.248 71.0303 134.567 70.2363C135.632 67.6159 138 61.7134 136.882 60.3106V60.3106Z" fill="#fff"/>
</svg>
