<svg width="200" height="101" viewBox="0 0 200 101" fill="#fff" xmlns="http://www.w3.org/2000/svg">
<mask id="path-1-inside-1_1724_29420" fill="#fff">
<path d="M54.469 68.725C58.5288 68.0092 62.5881 67.2908 66.647 66.5698L66.7614 66.5454L60.4973 59.0946C57.0522 54.9967 54.2334 51.628 54.2334 51.6088C54.2334 51.5721 60.7014 33.7603 60.7379 33.6968C60.7499 33.6758 65.1517 41.2752 71.4079 52.1186C77.2651 62.2702 82.0939 70.6402 82.1388 70.7186L82.2204 70.8611L62.3132 70.8585L42.4058 70.8558L54.469 68.725V68.725ZM130.811 66.923C127.781 66.7288 126.019 65.0034 125.552 61.7735C125.427 60.9144 125.427 60.8919 125.414 55.3144L125.402 49.9159H128.084L128.095 55.1373C128.104 59.8437 128.11 60.3955 128.155 60.7263C128.338 62.07 128.701 62.9736 129.32 63.622C129.815 64.141 130.395 64.4451 131.198 64.6062C131.577 64.6823 132.654 64.6823 132.999 64.6064C133.813 64.4275 134.465 64.0733 135.04 63.4981C135.696 62.8427 136.181 61.9125 136.416 60.8612L136.495 60.5064L136.504 55.2407L136.513 49.975H139.251V66.5307H136.541V65.2175C136.541 64.3251 136.531 63.9072 136.511 63.9143C136.494 63.9198 136.424 64.0263 136.356 64.1509C135.889 65.0024 135.111 65.7814 134.258 66.2505C133.236 66.8128 132.212 67.013 130.811 66.9233V66.923ZM161.569 66.9099C160.499 66.8293 159.373 66.4615 158.452 65.8918C156.512 64.692 155.364 62.7136 155.028 59.9909C154.911 59.0489 154.898 57.7832 154.995 56.9827C155.211 55.194 155.914 53.4379 156.915 52.1842C157.172 51.8631 157.754 51.2808 158.075 51.0245C158.941 50.3326 159.954 49.849 161.036 49.611C161.664 49.4738 162.77 49.4093 163.437 49.4712C165.113 49.6265 166.649 50.4155 167.693 51.6574C168.753 52.9194 169.336 54.6826 169.411 56.8536C169.422 57.1939 169.425 57.7903 169.417 58.1791L169.402 58.8862L163.533 58.8936L157.663 58.9009V59.163C157.663 59.9604 157.857 60.8685 158.192 61.6412C158.481 62.3077 158.978 63.0353 159.386 63.3874C160.221 64.1095 161.243 64.5416 162.362 64.6455C162.776 64.6841 163.834 64.6434 164.306 64.5707C165.654 64.3635 166.936 63.8348 167.971 63.0586C168.057 62.9939 168.143 62.9306 168.23 62.8689C168.261 62.85 168.268 63.0885 168.267 64.0916L168.266 65.3377L167.989 65.5093C166.818 66.2335 165.476 66.6987 164.056 66.8726C163.631 66.9246 162.076 66.9479 161.569 66.9096V66.9099ZM166.677 56.4002C166.677 55.0644 166.114 53.5806 165.318 52.8166C164.749 52.2713 164.062 51.9381 163.245 51.8116C162.859 51.7518 162.044 51.7749 161.637 51.857C160.775 52.0312 160.063 52.4099 159.441 53.0238C158.788 53.6701 158.297 54.4551 157.989 55.3493C157.878 55.671 157.748 56.1989 157.708 56.4928L157.689 56.6326H166.677L166.677 56.4002ZM87.0566 66.494C87.0634 66.4735 89.0568 61.2374 91.4859 54.8579L95.9028 43.2585H98.741L98.8588 43.5602C99.2185 44.483 107.701 66.5055 107.701 66.5171C107.701 66.5244 107.022 66.5307 106.191 66.5305L104.682 66.5302L103.459 63.2754L102.236 60.0203H92.3916L92.3486 60.1307C92.325 60.1916 91.8028 61.6562 91.1878 63.3853L90.0701 66.5297L88.5569 66.5302C87.3594 66.5305 87.0466 66.5229 87.0566 66.4937V66.494ZM101.338 57.5363C101.338 57.531 100.515 55.3008 99.5095 52.5799C97.6282 47.4897 97.5233 47.1835 97.3745 46.3662C97.305 45.9831 97.2696 45.9726 97.2281 46.3221C97.1987 46.5719 97.0707 47.1313 96.9715 47.4414C96.9224 47.5954 96.0755 49.9204 95.0892 52.6085C94.1026 55.2963 93.2958 57.5066 93.2958 57.5205C93.2958 57.5344 95.1052 57.5457 97.3168 57.5457C99.5284 57.5457 101.338 57.5415 101.338 57.5365L101.338 57.5363ZM108.614 66.1067V65.683L113.519 58.9411L118.423 52.1992L113.983 52.1842L109.542 52.1695L109.534 51.0429L109.527 49.9159H122.371V50.6771L117.467 57.4557C114.769 61.1842 112.562 64.2409 112.562 64.2485C112.562 64.2561 114.742 64.2624 117.408 64.2624H122.254V66.5307H108.614V66.1067ZM144.603 66.5111C144.592 66.5003 144.583 62.7619 144.583 58.2038V49.9159H147.264V51.6246C147.264 52.5644 147.275 53.3332 147.29 53.3332C147.303 53.3332 147.369 53.1794 147.434 52.9913C147.736 52.1299 148.258 51.3249 148.932 50.685C149.538 50.1088 150.231 49.764 151.049 49.632C151.279 49.5953 151.474 49.5879 151.933 49.6C152.51 49.615 152.812 49.6572 153.163 49.7719L153.273 49.8081V52.5906L152.957 52.4322C152.398 52.1522 151.846 52.0412 151.182 52.0759C150.75 52.0982 150.467 52.1538 150.121 52.2831C149.421 52.5421 148.826 53.0276 148.432 53.6627C147.849 54.5926 147.434 55.7878 147.311 56.8864C147.289 57.0834 147.276 58.6889 147.271 61.854L147.263 66.5307H145.943C145.217 66.5307 144.614 66.5218 144.603 66.5111V66.5111ZM30.5781 66.4528C30.5781 66.4423 33.5297 61.3188 37.1371 55.067L43.6962 43.7001L51.3399 37.2856C55.5438 33.7577 58.9949 30.8665 59.0088 30.8612C59.0224 30.856 58.9673 30.995 58.8857 31.1703C58.8044 31.3458 55.0694 39.3569 50.5858 48.9729L42.4336 66.4567L36.5059 66.4643C33.2458 66.4685 30.5781 66.4633 30.5781 66.4528Z"/>
</mask>
<path d="M54.469 68.725C58.5288 68.0092 62.5881 67.2908 66.647 66.5698L66.7614 66.5454L60.4973 59.0946C57.0522 54.9967 54.2334 51.628 54.2334 51.6088C54.2334 51.5721 60.7014 33.7603 60.7379 33.6968C60.7499 33.6758 65.1517 41.2752 71.4079 52.1186C77.2651 62.2702 82.0939 70.6402 82.1388 70.7186L82.2204 70.8611L62.3132 70.8585L42.4058 70.8558L54.469 68.725V68.725ZM130.811 66.923C127.781 66.7288 126.019 65.0034 125.552 61.7735C125.427 60.9144 125.427 60.8919 125.414 55.3144L125.402 49.9159H128.084L128.095 55.1373C128.104 59.8437 128.11 60.3955 128.155 60.7263C128.338 62.07 128.701 62.9736 129.32 63.622C129.815 64.141 130.395 64.4451 131.198 64.6062C131.577 64.6823 132.654 64.6823 132.999 64.6064C133.813 64.4275 134.465 64.0733 135.04 63.4981C135.696 62.8427 136.181 61.9125 136.416 60.8612L136.495 60.5064L136.504 55.2407L136.513 49.975H139.251V66.5307H136.541V65.2175C136.541 64.3251 136.531 63.9072 136.511 63.9143C136.494 63.9198 136.424 64.0263 136.356 64.1509C135.889 65.0024 135.111 65.7814 134.258 66.2505C133.236 66.8128 132.212 67.013 130.811 66.9233V66.923ZM161.569 66.9099C160.499 66.8293 159.373 66.4615 158.452 65.8918C156.512 64.692 155.364 62.7136 155.028 59.9909C154.911 59.0489 154.898 57.7832 154.995 56.9827C155.211 55.194 155.914 53.4379 156.915 52.1842C157.172 51.8631 157.754 51.2808 158.075 51.0245C158.941 50.3326 159.954 49.849 161.036 49.611C161.664 49.4738 162.77 49.4093 163.437 49.4712C165.113 49.6265 166.649 50.4155 167.693 51.6574C168.753 52.9194 169.336 54.6826 169.411 56.8536C169.422 57.1939 169.425 57.7903 169.417 58.1791L169.402 58.8862L163.533 58.8936L157.663 58.9009V59.163C157.663 59.9604 157.857 60.8685 158.192 61.6412C158.481 62.3077 158.978 63.0353 159.386 63.3874C160.221 64.1095 161.243 64.5416 162.362 64.6455C162.776 64.6841 163.834 64.6434 164.306 64.5707C165.654 64.3635 166.936 63.8348 167.971 63.0586C168.057 62.9939 168.143 62.9306 168.23 62.8689C168.261 62.85 168.268 63.0885 168.267 64.0916L168.266 65.3377L167.989 65.5093C166.818 66.2335 165.476 66.6987 164.056 66.8726C163.631 66.9246 162.076 66.9479 161.569 66.9096V66.9099ZM166.677 56.4002C166.677 55.0644 166.114 53.5806 165.318 52.8166C164.749 52.2713 164.062 51.9381 163.245 51.8116C162.859 51.7518 162.044 51.7749 161.637 51.857C160.775 52.0312 160.063 52.4099 159.441 53.0238C158.788 53.6701 158.297 54.4551 157.989 55.3493C157.878 55.671 157.748 56.1989 157.708 56.4928L157.689 56.6326H166.677L166.677 56.4002ZM87.0566 66.494C87.0634 66.4735 89.0568 61.2374 91.4859 54.8579L95.9028 43.2585H98.741L98.8588 43.5602C99.2185 44.483 107.701 66.5055 107.701 66.5171C107.701 66.5244 107.022 66.5307 106.191 66.5305L104.682 66.5302L103.459 63.2754L102.236 60.0203H92.3916L92.3486 60.1307C92.325 60.1916 91.8028 61.6562 91.1878 63.3853L90.0701 66.5297L88.5569 66.5302C87.3594 66.5305 87.0466 66.5229 87.0566 66.4937V66.494ZM101.338 57.5363C101.338 57.531 100.515 55.3008 99.5095 52.5799C97.6282 47.4897 97.5233 47.1835 97.3745 46.3662C97.305 45.9831 97.2696 45.9726 97.2281 46.3221C97.1987 46.5719 97.0707 47.1313 96.9715 47.4414C96.9224 47.5954 96.0755 49.9204 95.0892 52.6085C94.1026 55.2963 93.2958 57.5066 93.2958 57.5205C93.2958 57.5344 95.1052 57.5457 97.3168 57.5457C99.5284 57.5457 101.338 57.5415 101.338 57.5365L101.338 57.5363ZM108.614 66.1067V65.683L113.519 58.9411L118.423 52.1992L113.983 52.1842L109.542 52.1695L109.534 51.0429L109.527 49.9159H122.371V50.6771L117.467 57.4557C114.769 61.1842 112.562 64.2409 112.562 64.2485C112.562 64.2561 114.742 64.2624 117.408 64.2624H122.254V66.5307H108.614V66.1067ZM144.603 66.5111C144.592 66.5003 144.583 62.7619 144.583 58.2038V49.9159H147.264V51.6246C147.264 52.5644 147.275 53.3332 147.29 53.3332C147.303 53.3332 147.369 53.1794 147.434 52.9913C147.736 52.1299 148.258 51.3249 148.932 50.685C149.538 50.1088 150.231 49.764 151.049 49.632C151.279 49.5953 151.474 49.5879 151.933 49.6C152.51 49.615 152.812 49.6572 153.163 49.7719L153.273 49.8081V52.5906L152.957 52.4322C152.398 52.1522 151.846 52.0412 151.182 52.0759C150.75 52.0982 150.467 52.1538 150.121 52.2831C149.421 52.5421 148.826 53.0276 148.432 53.6627C147.849 54.5926 147.434 55.7878 147.311 56.8864C147.289 57.0834 147.276 58.6889 147.271 61.854L147.263 66.5307H145.943C145.217 66.5307 144.614 66.5218 144.603 66.5111V66.5111ZM30.5781 66.4528C30.5781 66.4423 33.5297 61.3188 37.1371 55.067L43.6962 43.7001L51.3399 37.2856C55.5438 33.7577 58.9949 30.8665 59.0088 30.8612C59.0224 30.856 58.9673 30.995 58.8857 31.1703C58.8044 31.3458 55.0694 39.3569 50.5858 48.9729L42.4336 66.4567L36.5059 66.4643C33.2458 66.4685 30.5781 66.4633 30.5781 66.4528Z" fill="#fff" stroke="#fff" stroke-width="34.8879" mask="url(#path-1-inside-1_1724_29420)"/>
</svg>
